<svg data-name="Layer 1" xmlns="http://www.w3.org/2000/svg" viewBox="0 0 100 100"><defs><style>.cls-1{fill:#7ac143;}.cls-2{fill:#282828;}</style></defs><title>Icons-Pawsitive</title><path class="cls-1" d="M82.61,46.48a32.78,32.78,0,0,0-29.09-29.1L50.2,17V30.5a19.72,19.72,0,0,1-19.7,19.7H17l.35,3.31A32.78,32.78,0,0,0,46.49,82.61L49.8,83V69.49A19.72,19.72,0,0,1,69.5,49.8H83Z"/><path class="cls-2" d="M49.93,86.09a36.07,36.07,0,0,1-36-36v-.18a36.07,36.07,0,0,1,36-36h.18a36.07,36.07,0,0,1,36,35.79v.6a36.07,36.07,0,0,1-36,35.79h-.16Zm19.57-33a16.42,16.42,0,0,0-16.4,16.4V79.74l.33,0A29.89,29.89,0,0,0,79.7,53.43l0-.33Zm-49.2.33A29.88,29.88,0,0,0,46.57,79.7l.33,0V69.49A22.62,22.62,0,0,1,69.5,46.9H79.74l0-.33A29.88,29.88,0,0,0,53.44,20.3l-.33,0V30.5a22.62,22.62,0,0,1-22.6,22.6H20.27ZM46.57,20.3A29.88,29.88,0,0,0,20.3,46.56l0,.33H30.51A16.42,16.42,0,0,0,46.9,30.5V20.26Z"/></svg>