<svg data-name="Layer 1" xmlns="http://www.w3.org/2000/svg" viewBox="0 0 100 100"><defs><style>.cls-1{fill:#282828;}.cls-2{fill:#7ac143;}</style></defs><title>Icons-Pawsitive</title><path class="cls-1" d="M30.65,89.7a9.7,9.7,0,0,1-7-2.95,36.3,36.3,0,0,1-9.93-22.64V64l-.14-.08a6.37,6.37,0,0,1-3.3-5.54v-5A6.37,6.37,0,0,1,16.67,47h2.12l0-.34A13.2,13.2,0,0,1,18.63,45,13,13,0,0,1,29.45,32.17l.16,0,.07-.14a11.32,11.32,0,0,1,20-1.31l.12.2.22-.07a11.42,11.42,0,0,1,3.33-.52,11.29,11.29,0,0,1,8.07,3.41l.16.17.2-.12A13,13,0,0,1,81.37,45a13.2,13.2,0,0,1-.11,1.63l0,.34h2.12a6.37,6.37,0,0,1,6.37,6.37v5a6.36,6.36,0,0,1-3.3,5.54l-.14.08v.16a36.3,36.3,0,0,1-9.92,22.63,9.72,9.72,0,0,1-7,3ZM19.9,65a29.91,29.91,0,0,0,8.16,17.52,3.6,3.6,0,0,0,2.59,1.08h38.7a3.6,3.6,0,0,0,2.6-1.09A29.88,29.88,0,0,0,80.1,65l0-.33H19.87Zm-3.54-6.4H83.63V53H16.37ZM31.67,38a7,7,0,0,0-6.75,8.71L25,47H75l.06-.23A7,7,0,0,0,68.33,38a6.93,6.93,0,0,0-5.13,2.28,3,3,0,0,1-.27.24l-.11.1-.09.08-.19.11a3,3,0,0,1-.34.2L62,41.1a3,3,0,0,1-.4.13l-.19,0-.13,0-.27,0h-.21a2.88,2.88,0,0,1-.6-.09l-.18,0a3,3,0,0,1-.68-.31l-.14-.1a3,3,0,0,1-.3-.22l-.08-.08-.08-.09-.15-.17a3,3,0,0,1-.42-.66,5.33,5.33,0,0,0-4.86-3.17,5.26,5.26,0,0,0-3.28,1.13l-.1.06-.28.18-.25.13-.27.1-.3.09-.13,0h-.16l-.26,0h-.13l-.42,0L47.42,38,47.21,38a3,3,0,0,1-.32-.14l-.18-.08a3.11,3.11,0,0,1-.46-.31l-.09-.09a2.83,2.83,0,0,1-.31-.32l-.11-.15a2.92,2.92,0,0,1-.21-.32l-.1-.2c0-.1-.08-.2-.12-.31s-.05-.17-.07-.25l0-.12a5.3,5.3,0,0,0-10.39-.07,3,3,0,0,1-.18.58l-.05.1a3,3,0,0,1-.23.42l-.09.11-.14.17a1.74,1.74,0,0,1-.15.17l-.13.11a3.17,3.17,0,0,1-.32.26,3.06,3.06,0,0,1-1.39.48L32,38l-.16,0Z"/><rect class="cls-2" x="16.37" y="53.03" width="67.27" height="5.6"/><circle class="cls-1" cx="58.33" cy="21.67" r="4.7"/><circle class="cls-1" cx="71.67" cy="15" r="4.7"/></svg>