<svg data-name="Layer 1" xmlns="http://www.w3.org/2000/svg" viewBox="0 0 100 100"><defs><style>.cls-1{fill:#7ac143;}.cls-2{fill:#282828;}</style></defs><title>Icons-Pawsitive</title><path class="cls-1" d="M42.21,34.71a14.39,14.39,0,0,0-2.75,16.52,14.23,14.23,0,0,0,2.75,3.85l2.52,2.52a14.11,14.11,0,0,0,3.83,2.74,14.51,14.51,0,0,0,6.35,1.48,14.31,14.31,0,0,0,10.18-4.22L76,46.68l-.39-.08a29,29,0,0,1-14.28-8.13,29.06,29.06,0,0,1-8.14-14.27l-.08-.39Z"/><path class="cls-2" d="M30,89.8A11.48,11.48,0,0,1,18.53,78.33c0-.1,0-.19,0-.28l0-.35-.15,0a11.46,11.46,0,1,1,9.71-20.44l.14.09,5.51-5.52,0-.12a19.89,19.89,0,0,1,4.7-20.47L56.05,13.58h.12v-.12a11.93,11.93,0,0,1,8.6-3.27c5.59,0,11.94,3,17,8,8.5,8.52,10.58,19.79,4.72,25.65L68.79,61.57a19.75,19.75,0,0,1-20.48,4.7l-.12,0-7.66,7.66,0,.12a11.34,11.34,0,0,1,.88,4.32A11.48,11.48,0,0,1,30,89.8Zm-7.49-18,.25,0,.15,0,.2,0a2.93,2.93,0,0,1,.43.15l.13,0a3.14,3.14,0,0,1,.47.27l.09.05a2.91,2.91,0,0,1,.4.35l.41.52a2.27,2.27,0,0,1,.16.32l.07.16a1.19,1.19,0,0,1,.08.24l0,.11a3,3,0,0,1,.08.34.53.53,0,0,1,0,.14s0,.08,0,.12a2.82,2.82,0,0,1,0,.36,1.87,1.87,0,0,1,0,.22l0,.14a2,2,0,0,1,0,.24,2.81,2.81,0,0,1-.11.34l0,.14a5.3,5.3,0,0,0-.47,2.18,5.2,5.2,0,1,0,10.4,0,5.08,5.08,0,0,0-1-3.1l-.05-.09a2.62,2.62,0,0,1-.17-.28c-.07-.12-.11-.19-.14-.27s-.07-.17-.09-.26-.08-.24-.1-.32,0-.2,0-.29,0-.22,0-.3,0-.16,0-.24,0-.26,0-.36,0-.17.06-.26.06-.23.09-.32a2,2,0,0,1,.09-.2c.08-.17.13-.26.18-.35l.12-.16a3.38,3.38,0,0,1,.26-.33l.06-.08,8-8-.17-.14a19.68,19.68,0,0,1-1.53-1.36L38.43,59.2a19.3,19.3,0,0,1-1.37-1.53l-.14-.17-6.38,6.38-.08.07-.08.07-.08.08-.09.08-.37.22-.26.14-.3.11-.27.08-.28,0-.32,0h-.11l-.22,0-.27,0-.29-.07-.29-.09L27,64.5l-.1,0-.24-.13-.21-.15a3.47,3.47,0,0,1-.29-.24A.83.83,0,0,1,26,63.8L26,63.71l-.07-.08-.08-.09a5.2,5.2,0,1,0-4.16,8.32l.26,0h.18l.33,0ZM42.86,35.63a13.52,13.52,0,0,0-2.59,15.52,13.37,13.37,0,0,0,2.59,3.62l2.37,2.37a13.26,13.26,0,0,0,3.6,2.58,13.63,13.63,0,0,0,6,1.39,13.45,13.45,0,0,0,9.57-4L74.62,46.88l-.36-.07a27.26,27.26,0,0,1-13.42-7.64,27.3,27.3,0,0,1-7.65-13.41l-.08-.36ZM64.78,16.5A5.85,5.85,0,0,0,60.55,18c-2.85,2.86-1.62,10.46,4.71,16.79,3.87,3.87,8.55,6.17,12.54,6.17A5.87,5.87,0,0,0,82,39.45C84.9,36.6,83.66,29,77.33,22.67,73.45,18.8,68.76,16.5,64.78,16.5Z"/></svg>