<svg data-name="Layer 1" xmlns="http://www.w3.org/2000/svg" viewBox="0 0 100 100"><defs><style>.cls-1{fill:#7ac143;}.cls-2{fill:#282828;}</style></defs><title>Icons-Pawsitive</title><path class="cls-1" d="M63.42,70.5a3,3,0,0,1,3,3v3.72h9.41a3.73,3.73,0,0,0,3.68-4.26L77.61,59.7H22.39L20.5,73a3.73,3.73,0,0,0,3.68,4.25h9.41V73.49a3,3,0,0,1,6,0v3.72H47V73.49a3,3,0,0,1,6,0v3.72h7.44V73.49A3,3,0,0,1,63.42,70.5Z"/><path class="cls-2" d="M24.12,83.27a9.74,9.74,0,0,1-9.63-11.1l1.87-13L16.09,59A9.69,9.69,0,0,1,10,50V43.27a9.74,9.74,0,0,1,9.73-9.72h10.7l.05-.3a19.79,19.79,0,0,1,39,0l.05.31h10.7A9.74,9.74,0,0,1,90,43.27V50a9.69,9.69,0,0,1-6.09,9l-.27.11,1.87,13a9.74,9.74,0,0,1-9.63,11.11ZM63.46,70.55a3,3,0,0,1,3,3v3.73h9.43A3.74,3.74,0,0,0,79.57,73l-1.9-13.28H22.32L20.42,73a3.74,3.74,0,0,0,3.69,4.26h9.43V73.55a3,3,0,0,1,6,0v3.73H47V73.55a3,3,0,0,1,6,0v3.73h7.46V73.55A3,3,0,0,1,63.46,70.55Zm-43.73-31A3.73,3.73,0,0,0,16,43.27V50a3.73,3.73,0,0,0,3.73,3.73H80.27A3.73,3.73,0,0,0,84,50V43.27a3.73,3.73,0,0,0-3.73-3.73ZM50,22.72A13.82,13.82,0,0,0,36.63,33.09l-.12.46h27l-.12-.46A13.82,13.82,0,0,0,50,22.72Z"/></svg>