<svg data-name="Layer 1" xmlns="http://www.w3.org/2000/svg" viewBox="0 0 100 100"><defs><style>.cls-1{fill:#7ac143;}.cls-2{fill:#282828;}</style></defs><title>Icons-Pawsitive</title><path class="cls-1" d="M79.92,28.24,77.15,17.13a2.53,2.53,0,0,0-2.46-1.92h0a2.53,2.53,0,0,0-2.11,1.13l-5.36,8a2.53,2.53,0,0,1-1.54,1.06l-6.56,1.51S50,25.32,50,43c0,11.67,11.59,16.92,18.26,15.25S80,50.6,80,47.91V28.85A2.53,2.53,0,0,0,79.92,28.24Z"/><path class="cls-2" d="M44.07,74.44a8,8,0,0,0,5.5-2.2,8,8,0,0,0,12.88-2.69,2.5,2.5,0,1,0-4.61-1.95,3,3,0,0,1-5.77-1.17A2.25,2.25,0,0,0,52,66a5,5,0,0,0,1.19-1.18l2-2.82a3.47,3.47,0,0,0-3-5.84H46.91a3.47,3.47,0,0,0-3,5.84l2,2.82A5.06,5.06,0,0,0,47.11,66a2.22,2.22,0,0,0,0,.41,3,3,0,0,1-5.77,1.17,2.5,2.5,0,1,0-4.61,1.95A8,8,0,0,0,44.07,74.44Z"/><circle class="cls-2" cx="37.47" cy="46.36" r="5.1"/><circle class="cls-2" cx="61.68" cy="46.36" r="5.1"/><path class="cls-2" d="M90.29,66.69l-8.4-2.87A34.07,34.07,0,0,0,83.23,58l6.37-1.69A3.26,3.26,0,1,0,87.93,50l-4.44,1.18a33.91,33.91,0,0,0-1.16-7,26.74,26.74,0,0,1-1-7.18V18.1a5.31,5.31,0,0,0-3.32-5A5.4,5.4,0,0,0,76,12.7a5.33,5.33,0,0,0-3.77,1.57c-2.26,2.24-5.71,5.66-8.52,8.48a65.35,65.35,0,0,0-14-1.24,66.3,66.3,0,0,0-14.15,1.25c-2.82-2.82-6.27-6.25-8.53-8.49a5.33,5.33,0,0,0-3.77-1.57,5.41,5.41,0,0,0-2.09.42,5.31,5.31,0,0,0-3.32,5V37a28.63,28.63,0,0,1-1,7.44A33.81,33.81,0,0,0,15.67,51l-3.6-1a3.26,3.26,0,1,0-1.67,6.3l5.49,1.45a33.5,33.5,0,0,0,1.47,6.31L9.71,66.69a3.26,3.26,0,1,0,2.11,6.16L20,70.05A34,34,0,0,0,45.91,87.11a35.45,35.45,0,0,0,3.69.19A33.9,33.9,0,0,0,79.27,69.81l8.9,3a3.26,3.26,0,0,0,2.11-6.16ZM76.41,59.81c-.16.66-.34,1.31-.55,1.95l-3-1Zm-49.31.93L23.38,62c-.28-.85-.52-1.65-.7-2.45Zm12.32,2.67a3.3,3.3,0,0,0,.49-.23l.19-.12.29-.21.18-.16a3.7,3.7,0,0,0,.27-.3l.11-.14a3.76,3.76,0,0,0,.24-.38l.07-.12a3.77,3.77,0,0,0,.17-.46l0-.15a3.21,3.21,0,0,0,.09-.59,1.62,1.62,0,0,0,0-.19l-.3,0,.29-.16a2.42,2.42,0,0,0,0-.3,4.32,4.32,0,0,0-.11-.47,1,1,0,0,0,0-.16,3.23,3.23,0,0,0-.26-.57,2.55,2.55,0,0,0-.2-.29l-.24.18.16-.29-.1-.13a2.71,2.71,0,0,0-.25-.24l-.2.23.11-.31-.12-.11a4,4,0,0,0-.43-.27l-.11-.06a3.23,3.23,0,0,0-.61-.23L22,52.65a27.52,27.52,0,0,1,.92-6.53A35,35,0,0,0,24.16,37V20.47c2.22,2.21,5,4.94,7.22,7.19a5.41,5.41,0,0,0,3.8,1.58,5.25,5.25,0,0,0,1.43-.2c2.55-.72,7.54-1.17,13-1.17S60,28.33,62.53,29a5.23,5.23,0,0,0,1.45.2,5.41,5.41,0,0,0,3.8-1.58c2.23-2.23,5-5,7.21-7.19V37a33.12,33.12,0,0,0,1.19,8.89,27.5,27.5,0,0,1,1,7L60.83,57.2a3.28,3.28,0,0,0-.59.22,2.75,2.75,0,0,0-.31.19l.17.25-.26-.19-.13.08a2.42,2.42,0,0,0-.23.2l.21.21-.32-.11-.13.13a2.13,2.13,0,0,0-.16.21l.25.17-.34,0a1.64,1.64,0,0,0-.12.18,3.36,3.36,0,0,0-.27.59,2.29,2.29,0,0,0-.06.24,3,3,0,0,0-.09.38,2.16,2.16,0,0,0,0,.29h.3l-.3.15a1.59,1.59,0,0,0,0,.2,3.73,3.73,0,0,0,.1.63l0,.13a3.37,3.37,0,0,0,.16.43l.09.17a3.33,3.33,0,0,0,.21.34l.14.17a3.31,3.31,0,0,0,.25.27l.17.15a3.45,3.45,0,0,0,.34.25l.15.09a3.69,3.69,0,0,0,.54.25l12.5,4.28a27.55,27.55,0,0,1-5.08,6.13,27.15,27.15,0,0,1-18.44,7.09,29.25,29.25,0,0,1-3-.16A27.71,27.71,0,0,1,26.17,67.95Z"/></svg>