<svg data-name="Layer 1" xmlns="http://www.w3.org/2000/svg" viewBox="0 0 100 100"><defs><style>.cls-1{fill:#7ac143;}.cls-2{fill:#282828;}</style></defs><title>_</title><circle class="cls-1" cx="50" cy="51" r="32"/><path class="cls-2" d="M80.82,89.4a2.59,2.59,0,0,1-2.39-1.32L72.94,80l-.61.49A34.53,34.53,0,0,1,50,88.23a35.91,35.91,0,0,1-22.34-7.55l-.61-.47L21.76,88a2.58,2.58,0,0,1-2.41,1.35,2.41,2.41,0,0,1-1.56-.51,2.59,2.59,0,0,1-1.33-1.82,3.12,3.12,0,0,1,.49-2.25l5.35-8.2.57-.53-.47-.52a34.94,34.94,0,0,1-9.19-24.14,38.53,38.53,0,0,1,3.45-15.78l.13-.3L16.65,35A13.31,13.31,0,0,1,11.53,25c0-3.88,1.89-7.53,5.62-10.83l.2-.2a14.94,14.94,0,0,1,8.8-3.33,11,11,0,0,1,2,.18c3.05.53,5.89,2.41,8.44,5.6l.19.23.35,0A42.07,42.07,0,0,1,50,14.47a35.64,35.64,0,0,1,12.64,2.3l.3.11.33-.16q3.91-4.84,8.81-5.78a13,13,0,0,1,1.8-.12A14.77,14.77,0,0,1,82.7,14l.07.13c3.78,3.21,5.7,6.86,5.7,10.83a12.85,12.85,0,0,1-4.93,9.83l-.25.21,0,.37a38.56,38.56,0,0,1,3.36,16,36.54,36.54,0,0,1-8.87,24.17l-.43.51.63.64,5.44,8.1c1,1.77.74,3-.95,4A2.19,2.19,0,0,1,80.82,89.4ZM50,20.39a29.44,29.44,0,0,0-21.71,9.18,30.27,30.27,0,0,0-9,21.86,30,30,0,0,0,9,21.78A29.57,29.57,0,0,0,50,82.31,29.43,29.43,0,0,0,71.7,73.13a30.25,30.25,0,0,0,9-21.86,30,30,0,0,0-9-21.78A29.57,29.57,0,0,0,50,20.39ZM25.88,16.79a7.79,7.79,0,0,0-4.81,2.1c-2.29,1.93-3.45,3.92-3.45,5.92a8.73,8.73,0,0,0,1.8,4.42l.56.85.62-.81a38.51,38.51,0,0,1,10-9.21l.83-.53-.76-.64a7.88,7.88,0,0,0-3.9-2A4.42,4.42,0,0,0,25.88,16.79Zm48.25,0a4.7,4.7,0,0,0-1,.11,7.78,7.78,0,0,0-3.83,2l-.76.64.84.53a38.64,38.64,0,0,1,10,9.21l.5.66.59-.59a6.21,6.21,0,0,0,1.89-4.53c0-2-1.16-4-3.44-5.92A7.82,7.82,0,0,0,74.12,16.79Z"/><path class="cls-2" d="M60.89,65.28a2.45,2.45,0,0,1-2-.92L47.83,53.43a3.47,3.47,0,0,1-.79-2V31.34a3.06,3.06,0,0,1,.88-2.25,2.92,2.92,0,0,1,4.17,0A3.07,3.07,0,0,1,53,31.34V50L63.05,60.15a3.14,3.14,0,0,1,1.13,2.15,2.93,2.93,0,0,1-1.11,2A3,3,0,0,1,60.89,65.28Z"/></svg>