<svg data-name="Layer 1" xmlns="http://www.w3.org/2000/svg" viewBox="0 0 100 100"><defs><style>.cls-1{fill:#7ac143;}.cls-2{fill:#282828;}</style></defs><title>Icons-Pawsitive</title><path class="cls-1" d="M88.51,27.91l4.84,25.39a2.88,2.88,0,0,1-2.83,3.42H87.1A2.88,2.88,0,0,1,84.45,55L72.66,27.86a2.88,2.88,0,0,1,3.12-4L86.15,25.6A2.88,2.88,0,0,1,88.51,27.91Z"/><path class="cls-1" d="M11.54,29.19,6.7,54.58A2.88,2.88,0,0,0,9.54,58H13a2.88,2.88,0,0,0,2.64-1.73L27.39,29.15a2.88,2.88,0,0,0-3.12-4L13.9,26.89A2.88,2.88,0,0,0,11.54,29.19Z"/><circle class="cls-2" cx="39.77" cy="48.52" r="5.16"/><circle class="cls-2" cx="60.41" cy="48.52" r="5.16"/><path class="cls-2" d="M96.52,39.31a18.71,18.71,0,0,0-12.8-15.82l-17-5.54a34.11,34.11,0,0,0-36.8,2L16.28,24.39A18.7,18.7,0,0,0,3.48,40.19L2,53l0,.36a8.75,8.75,0,0,0,8.74,8.75h.06a8.7,8.7,0,0,0,7.7-4.71l2.14-4L23.42,66c0,.08,0,.17.06.25A28.37,28.37,0,0,0,50.77,86.5,28.69,28.69,0,0,0,78.65,64c0-.1,0-.2.05-.3l1.2-10.19,1.56,3a8.72,8.72,0,0,0,7.72,4.75h.06A8.75,8.75,0,0,0,98,52.49ZM12.88,54.48a2.38,2.38,0,0,1-2.11,1.3,2.22,2.22,0,0,1-1.7-.69,2.37,2.37,0,0,1-.7-1.55L9.8,40.87a12.34,12.34,0,0,1,8.44-10.44l8.89-2.9Zm59.53,8.34A22.31,22.31,0,0,1,53.83,79.91c0-.05,0-.1,0-.16v-7a3.51,3.51,0,0,0,0-.44c3.61-1,6.17-3.38,6.17-6.22,0-3.68-4.28-6.66-9.57-6.66s-9.57,3-9.57,6.66c0,2.79,2.47,5.18,6,6.17a3.51,3.51,0,0,0,0,.49v7A22,22,0,0,1,29.6,64.55L25.26,44.68,36.6,23.24a27.84,27.84,0,0,1,13.31-3.39A28.13,28.13,0,0,1,64.17,23.8l10.5,19.84Zm18.53-8.64a2.57,2.57,0,0,1-1.7.69,2.4,2.4,0,0,1-2.13-1.33L72.86,26.64l8.89,2.9A12.36,12.36,0,0,1,90.2,40l1.43,12.63A2.36,2.36,0,0,1,90.93,54.18Z"/></svg>