<svg data-name="Layer 1" xmlns="http://www.w3.org/2000/svg" viewBox="0 0 100 100"><defs><style>.cls-1{fill:#7ac143;}.cls-2{fill:#282828;}</style></defs><title>Icons-Pawsitive</title><path class="cls-1" d="M45.67,49h7.84A11.75,11.75,0,0,1,65.26,60.75v23.5a0,0,0,0,1,0,0H33.93a0,0,0,0,1,0,0V60.75A11.75,11.75,0,0,1,45.67,49Z"/><path class="cls-2" d="M15.64,49.07l2.69-2.58V83.33A6.67,6.67,0,0,0,25,90H75a6.67,6.67,0,0,0,6.67-6.67V46.48l2.69,2.59A3.33,3.33,0,1,0,89,44.26l-8.28-8h0L55.89,12.44a8.32,8.32,0,0,0-11.73,0L19.32,36.29h0l-8.29,8a3.33,3.33,0,1,0,4.62,4.8Zm46,34.27H38.33V60A6.67,6.67,0,0,1,45,53.33H55A6.67,6.67,0,0,1,61.67,60ZM48.82,17.16a1.68,1.68,0,0,1,2.4,0L75,40.07V83.33H68.33V60A13.35,13.35,0,0,0,55,46.67H45A13.35,13.35,0,0,0,31.67,60V83.33H25V40.07Zm0,0"/></svg>