<svg data-name="Layer 1" xmlns="http://www.w3.org/2000/svg" viewBox="0 0 100 100"><defs><style>.cls-1{fill:#7ac143;}.cls-2{fill:#282828;}</style></defs><title>Icons-Pawsitive</title><path class="cls-1" d="M19.57,50.5a12.4,12.4,0,0,0,0,17.56L22,70.52a12.4,12.4,0,0,0,17.56,0l4.33-4.33v-.08a24,24,0,0,1,4.77-13.23l.11-.15L33.06,37Z"/><path class="cls-2" d="M66.48,89.8a23.09,23.09,0,0,1-22-16l-.1-.31-.67.66a18.12,18.12,0,0,1-25.65,0L15.7,71.77a18.12,18.12,0,0,1,0-25.65l30.6-30.6a18.12,18.12,0,0,1,25.65,0l2.35,2.35a18.12,18.12,0,0,1,0,25.65l-1,1,.31.1a23.09,23.09,0,0,1,16,22A23.16,23.16,0,0,1,66.48,89.8ZM57,80.61l.2.14A16.89,16.89,0,0,0,80.56,57.36l-.14-.2ZM66.48,49.8A16.84,16.84,0,0,0,49.62,66.67v.21A16.86,16.86,0,0,0,52.41,76l.14.2L76,52.72l-.2-.14a16.85,16.85,0,0,0-9.11-2.79Zm-46.35.75a11.85,11.85,0,0,0,0,16.79l2.35,2.35a11.85,11.85,0,0,0,16.78,0l4.14-4.14v-.08A22.9,22.9,0,0,1,48,52.82l.1-.14-15-15Zm39-34.08a11.8,11.8,0,0,0-8.4,3.48L37.46,33.22l15,15,.14-.1a22.92,22.92,0,0,1,12.65-4.56h.08l4.5-4.5a11.86,11.86,0,0,0,0-16.78l-2.35-2.35a11.76,11.76,0,0,0-8.38-3.48Z"/></svg>