<svg data-name="Layer 1" xmlns="http://www.w3.org/2000/svg" viewBox="0 0 100 100"><defs><style>.cls-1{fill:#7ac143;}.cls-2{fill:#282828;}</style></defs><title>Icons-Pawsitive</title><path class="cls-1" d="M23.51,44.68A4.49,4.49,0,0,0,19,49.16V66H81V49.16a4.49,4.49,0,0,0-4.48-4.48Z"/><path class="cls-2" d="M64.59,85.8A6.63,6.63,0,0,1,58,79.18v-8H42v8a6.63,6.63,0,0,1-6.62,6.62h-7.3a6.63,6.63,0,0,1-6.62-6.62v-8H9.87a3,3,0,1,1,0-5.95H14.2V50A10.29,10.29,0,0,1,21,40.33l.45-.16V35.42L16.61,33l-3.08-.07a3,3,0,1,1,0-5.95h2.79a6.54,6.54,0,0,1,3,.7l2.45,1.22L21.9,28A17.66,17.66,0,0,1,39.06,14.2H60.94A17.66,17.66,0,0,1,78.1,28l.18.85,2.45-1.22a6.56,6.56,0,0,1,3-.7h2.79a3,3,0,1,1,0,5.95H83.69l-5.18,2.51v4.75l.45.16A10.29,10.29,0,0,1,85.8,50V65.27h4.32a3,3,0,1,1,0,5.95H78.51v8a6.63,6.63,0,0,1-6.62,6.62Zm-.67-5.95h8.64V71.21H63.92Zm-36.48,0h8.64V71.21H27.44Zm-3-34.18A4.33,4.33,0,0,0,20.14,50V65.27H79.86V50a4.33,4.33,0,0,0-4.32-4.32ZM39.06,20.14A11.63,11.63,0,0,0,27.44,31.76v8H72.56v-8A11.63,11.63,0,0,0,60.94,20.14Z"/><path class="cls-2" d="M31.76,58.45a3,3,0,0,1,0-5.95h3.65a3,3,0,0,1,0,5.95Z"/><path class="cls-2" d="M64.59,58.45a3,3,0,1,1,0-5.95h3.65a3,3,0,1,1,0,5.95Z"/></svg>